<svg xmlns="http://www.w3.org/2000/svg" xmlns:xlink="http://www.w3.org/1999/xlink" width="200" zoomAndPan="magnify" viewBox="0 0 150 56.249996" height="75" preserveAspectRatio="xMidYMid meet" version="1.0"><defs><g/><clipPath id="d59031a151"><path d="M 0.988281 4 L 96 4 L 96 52 L 0.988281 52 Z M 0.988281 4 " clip-rule="nonzero"/></clipPath></defs><g clip-path="url(#d59031a151)"><path stroke-linecap="butt" transform="matrix(0.740131, 0, 0, 0.740131, -20.753889, 15.677356)" fill="none" stroke-linejoin="miter" d="M 45.077481 15.303429 C 46.080259 7.787873 47.468315 2.953428 52.751371 2.953428 L 53.363593 2.953428 C 57.548872 2.953428 57.928872 6.283706 57.263872 11.292317 L 67.829984 11.292317 L 68.114984 9.117873 C 69.444984 -1.337406 64.272761 -6.177129 53.701371 -6.177129 C 42.021648 -6.177129 36.342758 0.277594 34.347758 15.303429 L 34.062758 17.409263 C 32.06248 32.42982 37.292758 38.773709 48.97776 38.773709 C 58.715261 38.773709 64.990539 34.715098 66.225539 23.478708 L 66.283595 22.977319 L 55.701649 22.977319 C 55.210816 26.872319 53.595816 29.658986 49.859149 29.658986 L 49.246926 29.658986 C 44.24887 29.658986 43.800259 24.988152 44.808315 17.409263 Z M 88.587486 20.52843 C 94.482764 21.304263 95.53832 23.030097 95.311376 25.204541 L 95.25332 25.758708 C 95.036931 27.880375 93.421931 29.658986 89.806653 29.658986 L 89.252486 29.658986 C 85.637208 29.658986 84.022208 27.758986 84.63443 22.977319 L 74.06304 22.977319 L 73.941651 23.874541 C 72.664429 33.939264 78.126929 38.773709 88.693042 38.773709 C 98.921376 38.773709 105.048877 34.440653 105.946099 26.265375 L 106.051655 25.257319 C 106.991099 16.971207 102.874432 13.292595 93.585542 12.015373 C 87.853875 11.23954 86.91443 9.730095 87.130819 7.397317 L 87.183597 6.837873 C 87.415819 4.679261 89.194431 2.953428 92.250264 2.953428 L 92.809709 2.953428 C 96.709987 2.953428 97.823598 5.291483 97.142765 10.178706 L 107.72471 10.178706 L 107.888321 8.848706 C 109.112766 -1.052406 104.600266 -6.177129 93.759709 -6.177129 C 82.908597 -6.177129 77.282485 -0.946851 76.453874 6.727039 L 76.332485 7.735095 C 75.451096 15.572596 79.293318 19.309263 88.587486 20.52843 Z M 128.360824 20.52843 C 134.256102 21.304263 135.311658 23.030097 135.084713 25.204541 L 135.026658 25.758708 C 134.810269 27.880375 133.195269 29.658986 129.57999 29.658986 L 129.025824 29.658986 C 125.410546 29.658986 123.795545 27.758986 124.407768 22.977319 L 113.836378 22.977319 L 113.714989 23.874541 C 112.437766 33.939264 117.900267 38.773709 128.466379 38.773709 C 138.694714 38.773709 144.822214 34.440653 145.719437 26.265375 L 145.83027 25.257319 C 146.764437 16.971207 142.64777 13.292595 133.35888 12.015373 C 127.627212 11.23954 126.687768 9.730095 126.904157 7.397317 L 126.956935 6.837873 C 127.189157 4.679261 128.967768 2.953428 132.02888 2.953428 L 132.583046 2.953428 C 136.483325 2.953428 137.596936 5.291483 136.916102 10.178706 L 147.498048 10.178706 L 147.661659 8.848706 C 148.886104 -1.052406 144.373603 -6.177129 133.533046 -6.177129 C 122.681934 -6.177129 117.055822 -0.946851 116.227211 6.727039 L 116.105822 7.735095 C 115.224433 15.572596 119.066656 19.309263 128.360824 20.52843 Z M 128.360824 20.52843 " stroke="#ffffff" stroke-width="1.599869" stroke-opacity="1" stroke-miterlimit="4"/></g><g fill="#ffffff" fill-opacity="1"><g transform="translate(89.683512, 44.838537)"><g><path d="M 2.71875 -4.828125 C 2.9375 -6.4375 3.234375 -7.46875 4.359375 -7.46875 L 4.484375 -7.46875 C 5.375 -7.46875 5.453125 -6.75 5.3125 -5.6875 L 7.5625 -5.6875 L 7.625 -6.140625 C 7.90625 -8.375 6.8125 -9.40625 4.5625 -9.40625 C 2.078125 -9.40625 0.859375 -8.03125 0.4375 -4.828125 L 0.375 -4.375 C -0.046875 -1.1875 1.0625 0.171875 3.546875 0.171875 C 5.625 0.171875 6.96875 -0.703125 7.21875 -3.09375 L 7.234375 -3.203125 L 4.984375 -3.203125 C 4.875 -2.375 4.53125 -1.78125 3.75 -1.78125 L 3.609375 -1.78125 C 2.546875 -1.78125 2.453125 -2.765625 2.671875 -4.375 Z M 2.71875 -4.828125 "/></g></g></g><g fill="#ffffff" fill-opacity="1"><g transform="translate(98.387479, 44.838537)"><g><path d="M 5.71875 -9.234375 L 5.265625 -5.6875 L 3.015625 -5.6875 L 3.46875 -9.234375 L 1.21875 -9.234375 L 0.015625 0 L 2.265625 0 L 2.75 -3.75 L 5 -3.75 L 4.515625 0 L 6.765625 0 L 7.96875 -9.234375 Z M 5.71875 -9.234375 "/></g></g></g><g fill="#ffffff" fill-opacity="1"><g transform="translate(107.209859, 44.838537)"><g><path d="M 1.21875 -9.234375 L 0.015625 0 L 5.8125 0 L 6.0625 -1.9375 L 2.515625 -1.9375 L 2.75 -3.75 L 5.703125 -3.75 L 5.96875 -5.6875 L 3.015625 -5.6875 L 3.21875 -7.296875 L 6.78125 -7.296875 L 7.015625 -9.234375 Z M 1.21875 -9.234375 "/></g></g></g><g fill="#ffffff" fill-opacity="1"><g transform="translate(114.966446, 44.838537)"><g><path d="M 2.9375 -9.234375 L -0.46875 0 L 1.9375 0 L 2.546875 -1.875 L 4.46875 -1.875 L 4.609375 0 L 7.015625 0 L 6.015625 -9.234375 Z M 4.140625 -6.625 L 4.328125 -3.8125 L 3.203125 -3.8125 Z M 4.140625 -6.625 "/></g></g></g><g fill="#ffffff" fill-opacity="1"><g transform="translate(123.55199, 44.838537)"><g><path d="M 4.875 -7.296875 L 6.953125 -7.296875 L 7.203125 -9.234375 L 0.8125 -9.234375 L 0.5625 -7.296875 L 2.625 -7.296875 L 1.671875 0 L 3.921875 0 Z M 4.875 -7.296875 "/></g></g></g><g fill="#ffffff" fill-opacity="1"><g transform="translate(131.190167, 44.838537)"><g><path d="M 1.21875 -9.234375 L 0.015625 0 L 5.8125 0 L 6.0625 -1.9375 L 2.515625 -1.9375 L 2.75 -3.75 L 5.703125 -3.75 L 5.96875 -5.6875 L 3.015625 -5.6875 L 3.21875 -7.296875 L 6.78125 -7.296875 L 7.015625 -9.234375 Z M 1.21875 -9.234375 "/></g></g></g><g fill="#ffffff" fill-opacity="1"><g transform="translate(138.946753, 44.838537)"><g><path d="M 2.921875 -5.109375 L 3.21875 -7.296875 L 4.25 -7.296875 C 4.6875 -7.296875 5.15625 -7.15625 5.0625 -6.28125 L 5.0625 -6.140625 C 4.96875 -5.296875 4.390625 -5.109375 3.953125 -5.109375 Z M 2.671875 -3.171875 L 3.296875 -3.171875 L 4.09375 0 L 6.53125 0 L 5.546875 -3.484375 C 6.40625 -3.84375 7.125 -4.578125 7.3125 -6.09375 L 7.359375 -6.34375 C 7.703125 -8.90625 5.96875 -9.234375 4.40625 -9.234375 L 1.21875 -9.234375 L 0.015625 0 L 2.265625 0 Z M 2.671875 -3.171875 "/></g></g></g></svg>